<svg width="16" height="12" viewBox="0 0 16 12" fill="none" xmlns="http://www.w3.org/2000/svg">
<path d="M12.15 6.92892H1C0.716667 6.92892 0.479167 6.83309 0.2875 6.64143C0.0958333 6.44976 0 6.21226 0 5.92893C0 5.64559 0.0958333 5.40809 0.2875 5.21642C0.479167 5.02476 0.716667 4.92893 1 4.92893H12.15L9.3 2.07892C9.1 1.87892 9.00417 1.64559 9.0125 1.37892C9.02083 1.11226 9.11667 0.878925 9.3 0.678925C9.5 0.478925 9.7375 0.374758 10.0125 0.366425C10.2875 0.358092 10.525 0.453925 10.725 0.653925L15.3 5.22893C15.4 5.32893 15.4708 5.43726 15.5125 5.55393C15.5542 5.67059 15.575 5.79559 15.575 5.92893C15.575 6.06226 15.5542 6.18726 15.5125 6.30393C15.4708 6.42059 15.4 6.52892 15.3 6.62892L10.725 11.2039C10.525 11.4039 10.2875 11.4998 10.0125 11.4914C9.7375 11.4831 9.5 11.3789 9.3 11.1789C9.11667 10.9789 9.02083 10.7456 9.0125 10.4789C9.00417 10.2123 9.1 9.97892 9.3 9.77892L12.15 6.92892Z" fill="#F6F6F6"/>
</svg>
