<svg width="18" height="12" viewBox="0 0 18 12" fill="none" xmlns="http://www.w3.org/2000/svg">
<path d="M3.80005 6.92892L6.70005 9.82892C6.88338 10.0123 6.97505 10.2456 6.97505 10.5289C6.97505 10.8123 6.88338 11.0456 6.70005 11.2289C6.51672 11.4123 6.28338 11.5039 6.00005 11.5039C5.71672 11.5039 5.48338 11.4123 5.30005 11.2289L0.700049 6.62892C0.600049 6.52892 0.529215 6.42059 0.487549 6.30392C0.445882 6.18726 0.425049 6.06226 0.425049 5.92892C0.425049 5.79559 0.445882 5.67059 0.487549 5.55392C0.529215 5.43726 0.600049 5.32892 0.700049 5.22892L5.30005 0.628924C5.48338 0.44559 5.71672 0.353924 6.00005 0.353924C6.28338 0.353924 6.51672 0.44559 6.70005 0.628924C6.88338 0.812257 6.97505 1.04559 6.97505 1.32892C6.97505 1.61226 6.88338 1.84559 6.70005 2.02892L3.80005 4.92892H17C17.2834 4.92892 17.5209 5.02476 17.7125 5.21642C17.9042 5.40809 18 5.64559 18 5.92892C18 6.21226 17.9042 6.44976 17.7125 6.64142C17.5209 6.83309 17.2834 6.92892 17 6.92892H3.80005Z" fill="#83A720"/>
</svg>
