<svg width="108" height="24" viewBox="0 0 108 24" fill="none" xmlns="http://www.w3.org/2000/svg">
<mask id="mask0_3063_726" style="mask-type:luminance" maskUnits="userSpaceOnUse" x="8" y="6" width="16" height="12">
<path fill-rule="evenodd" clip-rule="evenodd" d="M8 6V9L16 18L24 9V6H16H8Z" fill="white"/>
</mask>
<g mask="url(#mask0_3063_726)">
<path fill-rule="evenodd" clip-rule="evenodd" d="M16 6C9.4 6 4 11.4 4 18C4 24.6 9.4 30 16 30C22.6 30 28 24.6 28 18C28 11.4 22.6 6 16 6ZM16 27C11 27 7 23 7 18C7 13 11 9 16 9C21 9 25 13 25 18C25 23 21 27 16 27Z" fill="black" fill-opacity="0.1"/>
<path fill-rule="evenodd" clip-rule="evenodd" d="M16 9C11 9 7 13 7 18C7 23 11 27 16 27C21 27 25 23 25 18C25 13 21 9 16 9ZM16 24C12.7 24 10 21.3 10 18C10 14.7 12.7 12 16 12C19.3 12 22 14.7 22 18C22 21.3 19.3 24 16 24Z" fill="black"/>
<path fill-rule="evenodd" clip-rule="evenodd" d="M16 12C12.7 12 10 14.7 10 18C10 21.3 12.7 24 16 24C19.3 24 22 21.3 22 18C22 14.7 19.3 12 16 12ZM16 21C14.3 21 13 19.7 13 18C13 16.3 14.3 15 16 15C17.7 15 19 16.3 19 18C19 19.7 17.7 21 16 21Z" fill="black"/>
<path fill-rule="evenodd" clip-rule="evenodd" d="M16 21C17.6569 21 19 19.6569 19 18C19 16.3431 17.6569 15 16 15C14.3431 15 13 16.3431 13 18C13 19.6569 14.3431 21 16 21Z" fill="black"/>
</g>
<mask id="mask1_3063_726" style="mask-type:luminance" maskUnits="userSpaceOnUse" x="34" y="6" width="12" height="12">
<path fill-rule="evenodd" clip-rule="evenodd" d="M46 18V6L34 18H46Z" fill="white"/>
</mask>
<g mask="url(#mask1_3063_726)">
<path fill-rule="evenodd" clip-rule="evenodd" d="M43 6V18H46V6H43Z" fill="black"/>
<path fill-rule="evenodd" clip-rule="evenodd" d="M40 6V18H43V6H40Z" fill="black"/>
<path fill-rule="evenodd" clip-rule="evenodd" d="M37 6V18H40V6H37Z" fill="black"/>
<path fill-rule="evenodd" clip-rule="evenodd" d="M34 6V18H37V6H34Z" fill="black"/>
</g>
<path d="M61.1685 7.20703V16.5H59.9941V8.67334L57.6265 9.53662V8.47656L60.9844 7.20703H61.1685ZM70.4233 11.1426V12.5518C70.4233 13.3092 70.3556 13.9482 70.2202 14.4688C70.0848 14.9893 69.8901 15.4082 69.6362 15.7256C69.3823 16.043 69.0755 16.2736 68.7158 16.4175C68.3604 16.5571 67.9583 16.627 67.5098 16.627C67.1543 16.627 66.8263 16.5825 66.5259 16.4937C66.2254 16.4048 65.9546 16.263 65.7134 16.0684C65.4764 15.8695 65.2733 15.6113 65.104 15.2939C64.9347 14.9766 64.8057 14.5915 64.7168 14.1387C64.6279 13.6859 64.5835 13.1569 64.5835 12.5518V11.1426C64.5835 10.3851 64.6512 9.75033 64.7866 9.23828C64.9263 8.72624 65.123 8.31576 65.377 8.00684C65.6309 7.69368 65.9355 7.4694 66.291 7.33398C66.6507 7.19857 67.0527 7.13086 67.4971 7.13086C67.8568 7.13086 68.1868 7.17529 68.4873 7.26416C68.792 7.3488 69.0628 7.48633 69.2998 7.67676C69.5368 7.86296 69.7378 8.11263 69.9028 8.42578C70.0721 8.7347 70.2012 9.11344 70.29 9.56201C70.3789 10.0106 70.4233 10.5374 70.4233 11.1426ZM69.2427 12.7422V10.9458C69.2427 10.5311 69.2173 10.1672 69.1665 9.854C69.12 9.53662 69.0501 9.26579 68.957 9.0415C68.8639 8.81722 68.7454 8.63525 68.6016 8.49561C68.4619 8.35596 68.299 8.25439 68.1128 8.19092C67.9308 8.12321 67.7256 8.08936 67.4971 8.08936C67.2178 8.08936 66.9702 8.14225 66.7544 8.24805C66.5386 8.34961 66.3566 8.51253 66.2085 8.73682C66.0646 8.9611 65.9546 9.25521 65.8784 9.61914C65.8022 9.98307 65.7642 10.4253 65.7642 10.9458V12.7422C65.7642 13.1569 65.7874 13.5229 65.834 13.8403C65.8848 14.1577 65.9588 14.4328 66.0562 14.6655C66.1535 14.894 66.272 15.0824 66.4116 15.2305C66.5513 15.3786 66.7121 15.4886 66.894 15.5605C67.0802 15.6283 67.2855 15.6621 67.5098 15.6621C67.7975 15.6621 68.0493 15.6071 68.2651 15.4971C68.481 15.387 68.6608 15.2157 68.8047 14.9829C68.9528 14.7459 69.0628 14.4434 69.1348 14.0752C69.2067 13.7028 69.2427 13.2585 69.2427 12.7422ZM77.7358 11.1426V12.5518C77.7358 13.3092 77.6681 13.9482 77.5327 14.4688C77.3973 14.9893 77.2026 15.4082 76.9487 15.7256C76.6948 16.043 76.388 16.2736 76.0283 16.4175C75.6729 16.5571 75.2708 16.627 74.8223 16.627C74.4668 16.627 74.1388 16.5825 73.8384 16.4937C73.5379 16.4048 73.2671 16.263 73.0259 16.0684C72.7889 15.8695 72.5858 15.6113 72.4165 15.2939C72.2472 14.9766 72.1182 14.5915 72.0293 14.1387C71.9404 13.6859 71.896 13.1569 71.896 12.5518V11.1426C71.896 10.3851 71.9637 9.75033 72.0991 9.23828C72.2388 8.72624 72.4355 8.31576 72.6895 8.00684C72.9434 7.69368 73.248 7.4694 73.6035 7.33398C73.9632 7.19857 74.3652 7.13086 74.8096 7.13086C75.1693 7.13086 75.4993 7.17529 75.7998 7.26416C76.1045 7.3488 76.3753 7.48633 76.6123 7.67676C76.8493 7.86296 77.0503 8.11263 77.2153 8.42578C77.3846 8.7347 77.5137 9.11344 77.6025 9.56201C77.6914 10.0106 77.7358 10.5374 77.7358 11.1426ZM76.5552 12.7422V10.9458C76.5552 10.5311 76.5298 10.1672 76.479 9.854C76.4325 9.53662 76.3626 9.26579 76.2695 9.0415C76.1764 8.81722 76.0579 8.63525 75.9141 8.49561C75.7744 8.35596 75.6115 8.25439 75.4253 8.19092C75.2433 8.12321 75.0381 8.08936 74.8096 8.08936C74.5303 8.08936 74.2827 8.14225 74.0669 8.24805C73.8511 8.34961 73.6691 8.51253 73.521 8.73682C73.3771 8.9611 73.2671 9.25521 73.1909 9.61914C73.1147 9.98307 73.0767 10.4253 73.0767 10.9458V12.7422C73.0767 13.1569 73.0999 13.5229 73.1465 13.8403C73.1973 14.1577 73.2713 14.4328 73.3687 14.6655C73.466 14.894 73.5845 15.0824 73.7241 15.2305C73.8638 15.3786 74.0246 15.4886 74.2065 15.5605C74.3927 15.6283 74.598 15.6621 74.8223 15.6621C75.11 15.6621 75.3618 15.6071 75.5776 15.4971C75.7935 15.387 75.9733 15.2157 76.1172 14.9829C76.2653 14.7459 76.3753 14.4434 76.4473 14.0752C76.5192 13.7028 76.5552 13.2585 76.5552 12.7422ZM79.145 9.52393V9.03516C79.145 8.68392 79.2212 8.36442 79.3735 8.07666C79.5259 7.7889 79.7438 7.55827 80.0273 7.38477C80.3109 7.21126 80.6473 7.12451 81.0366 7.12451C81.4344 7.12451 81.7729 7.21126 82.0522 7.38477C82.3358 7.55827 82.5537 7.7889 82.7061 8.07666C82.8584 8.36442 82.9346 8.68392 82.9346 9.03516V9.52393C82.9346 9.8667 82.8584 10.182 82.7061 10.4697C82.5579 10.7575 82.3421 10.9881 82.0586 11.1616C81.7793 11.3351 81.4429 11.4219 81.0493 11.4219C80.6558 11.4219 80.3151 11.3351 80.0273 11.1616C79.7438 10.9881 79.5259 10.7575 79.3735 10.4697C79.2212 10.182 79.145 9.8667 79.145 9.52393ZM80.0273 9.03516V9.52393C80.0273 9.71859 80.0633 9.90267 80.1353 10.0762C80.2114 10.2497 80.3257 10.3914 80.478 10.5015C80.6304 10.6073 80.8208 10.6602 81.0493 10.6602C81.2778 10.6602 81.4661 10.6073 81.6143 10.5015C81.7624 10.3914 81.8724 10.2497 81.9443 10.0762C82.0163 9.90267 82.0522 9.71859 82.0522 9.52393V9.03516C82.0522 8.83626 82.0142 8.65007 81.938 8.47656C81.866 8.29883 81.7539 8.15706 81.6016 8.05127C81.4535 7.94124 81.2651 7.88623 81.0366 7.88623C80.8123 7.88623 80.624 7.94124 80.4717 8.05127C80.3236 8.15706 80.2114 8.29883 80.1353 8.47656C80.0633 8.65007 80.0273 8.83626 80.0273 9.03516ZM83.6455 14.729V14.2339C83.6455 13.8869 83.7217 13.5695 83.874 13.2817C84.0264 12.994 84.2443 12.7633 84.5278 12.5898C84.8114 12.4163 85.1478 12.3296 85.5371 12.3296C85.9349 12.3296 86.2734 12.4163 86.5527 12.5898C86.8363 12.7633 87.0542 12.994 87.2065 13.2817C87.3589 13.5695 87.4351 13.8869 87.4351 14.2339V14.729C87.4351 15.076 87.3589 15.3934 87.2065 15.6812C87.0584 15.9689 86.8426 16.1995 86.5591 16.373C86.2798 16.5465 85.9434 16.6333 85.5498 16.6333C85.1562 16.6333 84.8177 16.5465 84.5342 16.373C84.2507 16.1995 84.0306 15.9689 83.874 15.6812C83.7217 15.3934 83.6455 15.076 83.6455 14.729ZM84.5278 14.2339V14.729C84.5278 14.9237 84.5638 15.1099 84.6357 15.2876C84.7119 15.4611 84.8262 15.6029 84.9785 15.7129C85.1309 15.8187 85.3213 15.8716 85.5498 15.8716C85.7783 15.8716 85.9666 15.8187 86.1147 15.7129C86.2671 15.6029 86.3792 15.4611 86.4512 15.2876C86.5231 15.1141 86.5591 14.9279 86.5591 14.729V14.2339C86.5591 14.035 86.521 13.8488 86.4448 13.6753C86.3729 13.5018 86.2607 13.3621 86.1084 13.2563C85.9603 13.1463 85.7699 13.0913 85.5371 13.0913C85.3128 13.0913 85.1245 13.1463 84.9722 13.2563C84.8241 13.3621 84.7119 13.5018 84.6357 13.6753C84.5638 13.8488 84.5278 14.035 84.5278 14.2339ZM85.8291 8.57178L81.3159 15.7954L80.6558 15.3765L85.1689 8.15283L85.8291 8.57178Z" fill="black"/>
<mask id="mask2_3063_726" style="mask-type:luminance" maskUnits="userSpaceOnUse" x="92" y="4" width="8" height="14">
<path fill-rule="evenodd" clip-rule="evenodd" d="M99 5.5H98V4.5H94V5.5H93C92.4 5.5 92 5.9 92 6.5V16.5C92 17.1 92.4 17.5 93 17.5H99C99.6 17.5 100 17.1 100 16.5V6.5C100 5.9 99.6 5.5 99 5.5Z" fill="white"/>
</mask>
<g mask="url(#mask2_3063_726)">
<path fill-rule="evenodd" clip-rule="evenodd" d="M92 14.5V17.5H100V14.5H92Z" fill="black"/>
<path fill-rule="evenodd" clip-rule="evenodd" d="M92 11.5V14.5H100V11.5H92Z" fill="black"/>
<path fill-rule="evenodd" clip-rule="evenodd" d="M92 8.5V11.5H100V8.5H92Z" fill="black"/>
<path fill-rule="evenodd" clip-rule="evenodd" d="M92 5.5V8.5H100V5.5H92Z" fill="black"/>
<path fill-rule="evenodd" clip-rule="evenodd" d="M94 4.5V5.5H98V4.5H94Z" fill="black"/>
</g>
</svg>
