<svg width="328" height="188" viewBox="0 0 328 188" fill="none" xmlns="http://www.w3.org/2000/svg">
<rect x="0.5" y="0.5" width="327" height="187" rx="19.5" fill="white"/>
<rect x="0.5" y="0.5" width="327" height="187" rx="19.5" stroke="#D3DBEC"/>
<path d="M125.836 32L128.92 23.6H130.228L133.312 32H132.028L129.568 25.04L127.096 32H125.836ZM127.228 29.924L127.564 28.964H131.512L131.848 29.924H127.228ZM135.539 32V24.584H133.055V23.6H139.235V24.584H136.739V32H135.539ZM142.981 32L146.065 23.6H147.373L150.457 32H149.173L146.713 25.04L144.241 32H142.981ZM144.373 29.924L144.709 28.964H148.657L148.993 29.924H144.373ZM158.36 32.144C157.568 32.144 156.876 31.964 156.284 31.604C155.692 31.244 155.232 30.74 154.904 30.092C154.576 29.444 154.412 28.688 154.412 27.824C154.412 26.968 154.576 26.212 154.904 25.556C155.24 24.9 155.716 24.388 156.332 24.02C156.956 23.644 157.692 23.456 158.54 23.456C159.492 23.456 160.288 23.688 160.928 24.152C161.568 24.608 161.98 25.244 162.164 26.06H160.796C160.676 25.596 160.424 25.232 160.04 24.968C159.656 24.696 159.152 24.56 158.528 24.56C157.936 24.56 157.42 24.692 156.98 24.956C156.548 25.22 156.216 25.596 155.984 26.084C155.752 26.572 155.636 27.152 155.636 27.824C155.636 28.504 155.752 29.088 155.984 29.576C156.216 30.064 156.544 30.436 156.968 30.692C157.392 30.948 157.88 31.076 158.432 31.076C159.28 31.076 159.916 30.832 160.34 30.344C160.772 29.856 161.024 29.204 161.096 28.388H158.78V27.464H162.308V32H161.216L161.108 30.716C160.916 31.028 160.692 31.292 160.436 31.508C160.188 31.716 159.896 31.876 159.56 31.988C159.224 32.092 158.824 32.144 158.36 32.144ZM163.888 32V23.6H165.088V31.052H168.928V32H163.888ZM169.793 32L172.877 23.6H174.185L177.269 32H175.985L173.525 25.04L171.053 32H169.793ZM171.185 29.924L171.521 28.964H175.469L175.805 29.924H171.185ZM178.466 32V23.6H179.666L183.95 30.044V23.6H185.15V32H183.95L179.666 25.568V32H178.466ZM190.587 32.144C189.763 32.144 189.051 31.964 188.451 31.604C187.859 31.236 187.399 30.728 187.071 30.08C186.751 29.424 186.591 28.664 186.591 27.8C186.591 26.944 186.751 26.188 187.071 25.532C187.399 24.876 187.859 24.368 188.451 24.008C189.051 23.64 189.763 23.456 190.587 23.456C191.571 23.456 192.367 23.692 192.975 24.164C193.591 24.636 193.983 25.3 194.151 26.156H192.831C192.711 25.66 192.463 25.264 192.087 24.968C191.719 24.672 191.219 24.524 190.587 24.524C190.019 24.524 189.527 24.656 189.111 24.92C188.695 25.184 188.375 25.56 188.151 26.048C187.927 26.536 187.815 27.12 187.815 27.8C187.815 28.48 187.927 29.068 188.151 29.564C188.375 30.052 188.695 30.428 189.111 30.692C189.527 30.948 190.019 31.076 190.587 31.076C191.219 31.076 191.719 30.936 192.087 30.656C192.463 30.368 192.711 29.98 192.831 29.492H194.151C193.983 30.324 193.591 30.976 192.975 31.448C192.367 31.912 191.571 32.144 190.587 32.144ZM195.587 32V23.6H200.891V24.584H196.787V27.272H200.531V28.232H196.787V31.016H200.891V32H195.587Z" fill="#808DB3"/>
<path d="M94.26 84.36C92.12 84.36 90.48 83.79 89.34 82.65C88.2 81.51 87.63 79.83 87.63 77.61V73.53C89.49 73.53 90.97 73.48 92.07 73.38C93.17 73.28 93.98 73.08 94.5 72.78C95.04 72.46 95.39 71.98 95.55 71.34C95.73 70.7 95.82 69.83 95.82 68.73V64.5H99.75V68.67C99.75 69.95 99.61 71.07 99.33 72.03C99.05 72.99 98.59 73.79 97.95 74.43C97.33 75.07 96.49 75.55 95.43 75.87C94.39 76.17 93.1 76.32 91.56 76.32V78.06C91.56 78.98 91.75 79.73 92.13 80.31C92.51 80.87 93.19 81.15 94.17 81.15C95.09 81.15 95.74 80.88 96.12 80.34C96.52 79.8 96.72 79.05 96.72 78.09H100.59C100.53 80.07 99.97 81.61 98.91 82.71C97.85 83.81 96.3 84.36 94.26 84.36ZM86.79 70.86V68.22H102.81V70.86H86.79ZM86.79 65.88V63H102.81V65.88H86.79ZM121.225 80.1064C121.612 80.54 122.092 80.8887 122.666 81.1523C123.246 81.4102 123.812 81.5391 124.363 81.5391C125.622 81.5391 126.58 81.2051 127.237 80.5371C127.899 79.8633 128.23 78.9082 128.23 77.6719C128.23 75.5625 126.706 74.5078 123.66 74.5078V71.6953C124.345 71.6953 124.94 71.6426 125.444 71.5371C125.953 71.4258 126.361 71.2793 126.665 71.0977C126.97 70.916 127.216 70.6875 127.404 70.4121C127.591 70.1309 127.717 69.8438 127.782 69.5508C127.846 69.252 127.878 68.9121 127.878 68.5312C127.878 67.2598 127.6 66.2988 127.043 65.6484C126.487 64.9922 125.593 64.6641 124.363 64.6641C123.812 64.6641 123.246 64.7959 122.666 65.0596C122.092 65.3174 121.612 65.6631 121.225 66.0967C121.916 66.1846 122.494 66.4951 122.956 67.0283C123.425 67.5557 123.66 68.1738 123.66 68.8828C123.66 69.6621 123.384 70.3271 122.833 70.8779C122.288 71.4229 121.626 71.6953 120.847 71.6953C120.302 71.6953 119.804 71.5547 119.353 71.2734C118.902 70.9863 118.559 70.6055 118.325 70.1309C117.973 69.4688 117.797 68.7598 117.797 68.0039C117.797 67.3887 117.914 66.7822 118.149 66.1846C118.383 65.5869 118.732 65.0303 119.195 64.5146C119.658 63.9932 120.205 63.5332 120.838 63.1348C121.471 62.7363 122.212 62.4229 123.062 62.1943C123.911 61.9658 124.814 61.8516 125.769 61.8516C126.624 61.8516 127.418 61.9131 128.151 62.0361C128.883 62.1592 129.522 62.332 130.067 62.5547C130.612 62.7715 131.101 63.0352 131.535 63.3457C131.968 63.6562 132.328 63.9932 132.616 64.3564C132.903 64.7197 133.14 65.1152 133.327 65.543C133.515 65.9707 133.65 66.4014 133.732 66.835C133.814 67.2627 133.855 67.7109 133.855 68.1797V68.1973V68.2061V68.2236V68.2324V68.25V68.2588V68.2764V68.2939V68.3027V68.3203V68.3291V68.3467V68.3555L133.846 68.373V68.3818V68.3994V68.4082V68.4258V68.4346V68.4521V68.4609V68.4785V68.4873L133.837 68.5049V68.5137V68.5312V68.54V68.5576V68.5664V68.584L133.828 68.5928V68.6016V68.6191V68.6279V68.6455V68.6543L133.82 68.6719V68.6807V68.6895V68.707V68.7158L133.811 68.7334V68.7422V68.751V68.7686L133.802 68.7773V68.7949V68.8037V68.8125L133.793 68.8301V68.8389V68.8564V68.8652L133.785 68.874V68.8916V68.9004V68.9092L133.776 68.9268V68.9355V68.9443L133.767 68.9619V68.9707V68.9795V68.9971L133.758 69.0059V69.0146V69.0322L133.749 69.041V69.0498V69.0674L133.741 69.0762V69.085V69.0938L133.732 69.1113V69.1201V69.1289L133.723 69.1465V69.1553V69.1641L133.714 69.1729V69.1904V69.1992L133.705 69.208V69.2168L133.697 69.2344V69.2432V69.252L133.688 69.2607V69.2783L133.679 69.2871V69.2959V69.3047L133.67 69.3223V69.3311L133.661 69.3398V69.3486V69.3662L133.653 69.375V69.3838L133.644 69.3926V69.4014L133.635 69.4189V69.4277V69.4365L133.626 69.4453V69.4541L133.618 69.4717V69.4805L133.609 69.4893V69.498L133.6 69.5068V69.5244V69.5332L133.591 69.542V69.5508C133.152 70.6289 132.235 71.5459 130.84 72.3018C130.272 72.6064 129.668 72.8584 129.03 73.0576C129.809 73.1807 130.509 73.377 131.13 73.6465C131.757 73.9102 132.302 74.2441 132.765 74.6484C133.228 75.0527 133.582 75.542 133.828 76.1162C134.08 76.6846 134.206 77.3203 134.206 78.0234C134.206 78.6797 134.113 79.3066 133.925 79.9043C133.738 80.4961 133.43 81.0674 133.002 81.6182C132.575 82.1631 132.041 82.6377 131.403 83.042C130.764 83.4404 129.961 83.7598 128.994 84C128.034 84.2344 126.958 84.3516 125.769 84.3516C124.814 84.3516 123.911 84.2373 123.062 84.0088C122.212 83.7803 121.471 83.4668 120.838 83.0684C120.205 82.6699 119.658 82.2129 119.195 81.6973C118.732 81.1758 118.383 80.6162 118.149 80.0186C117.914 79.4209 117.797 78.8145 117.797 78.1992C117.797 77.4434 117.973 76.7344 118.325 76.0723C118.559 75.5977 118.902 75.2197 119.353 74.9385C119.804 74.6514 120.302 74.5078 120.847 74.5078C121.626 74.5078 122.288 74.7832 122.833 75.334C123.384 75.8789 123.66 76.541 123.66 77.3203C123.66 78.0293 123.425 78.6504 122.956 79.1836C122.494 79.7109 121.916 80.0186 121.225 80.1064ZM140.744 78.5508C141.383 78.5508 141.951 78.7441 142.449 79.1309C142.953 79.5176 143.29 80.0186 143.46 80.6338C143.577 81.0615 143.636 81.5127 143.636 81.9873C143.636 82.708 143.495 83.4375 143.214 84.1758C142.933 84.9199 142.546 85.6201 142.054 86.2764C141.561 86.9326 140.99 87.5449 140.34 88.1133C139.695 88.6875 139.001 89.1914 138.257 89.625L136.982 88.3506C138.307 87.29 139.209 86.4697 139.689 85.8896C140.176 85.3096 140.428 84.7324 140.445 84.1582C139.73 84.0762 139.133 83.7686 138.652 83.2354C138.172 82.7021 137.932 82.0781 137.932 81.3633C137.932 80.584 138.204 79.9219 138.749 79.377C139.3 78.8262 139.965 78.5508 140.744 78.5508ZM151.597 66.6855L150.991 71.1504C151.969 70.8457 153.033 70.6143 154.181 70.4561C155.335 70.292 156.326 70.21 157.152 70.21C158.271 70.21 159.255 70.3828 160.105 70.7285C160.955 71.0684 161.643 71.5547 162.17 72.1875C162.698 72.8203 163.093 73.5674 163.357 74.4287C163.621 75.2842 163.752 76.248 163.752 77.3203C163.752 77.9766 163.659 78.627 163.471 79.2715C163.284 79.9102 162.973 80.54 162.54 81.1611C162.112 81.7822 161.582 82.3271 160.949 82.7959C160.316 83.2588 159.513 83.6338 158.541 83.9209C157.574 84.208 156.499 84.3516 155.315 84.3516C154.36 84.3516 153.458 84.2373 152.608 84.0088C151.758 83.7803 151.017 83.4668 150.384 83.0684C149.751 82.6699 149.204 82.2129 148.741 81.6973C148.278 81.1758 147.929 80.6162 147.695 80.0186C147.46 79.4209 147.343 78.8145 147.343 78.1992C147.343 77.4434 147.519 76.7344 147.871 76.0723C148.105 75.5977 148.448 75.2197 148.899 74.9385C149.35 74.6514 149.848 74.5078 150.393 74.5078C151.172 74.5078 151.834 74.7832 152.379 75.334C152.93 75.8789 153.206 76.541 153.206 77.3203C153.206 78.0293 152.971 78.6504 152.502 79.1836C152.04 79.7109 151.462 80.0186 150.771 80.1064C151.158 80.54 151.638 80.8887 152.212 81.1523C152.792 81.4102 153.358 81.5391 153.909 81.5391C155.168 81.5391 156.126 81.2051 156.783 80.5371C157.445 79.8633 157.776 78.9082 157.776 77.6719C157.776 76.084 157.445 74.9502 156.783 74.2705C156.121 73.5908 154.984 73.251 153.373 73.251C152.646 73.251 151.77 73.3184 150.745 73.4531L147.932 72.75L148.055 72.6797L149.497 62.2031H152.151C152.268 62.2324 152.57 62.3145 153.056 62.4492C153.548 62.5781 153.891 62.6631 154.084 62.7041C154.284 62.7393 154.626 62.7832 155.113 62.8359C155.605 62.8828 156.141 62.9062 156.721 62.9062C159.194 62.9062 161.303 62.6719 163.049 62.2031L163.401 63.2578C163.149 64.0195 162.789 64.6816 162.32 65.2441C161.851 65.8066 161.312 66.2461 160.703 66.5625C160.099 66.8789 159.469 67.1104 158.813 67.2568C158.157 67.4033 157.459 67.4766 156.721 67.4766C154.442 67.4766 152.734 67.2129 151.597 66.6855ZM168.937 79.1309C168.937 78.3516 169.209 77.6895 169.754 77.1445C170.305 76.5938 170.97 76.3184 171.749 76.3184C172.528 76.3184 173.19 76.5938 173.735 77.1445C174.286 77.6895 174.562 78.3516 174.562 79.1309C174.562 79.5293 174.482 79.9072 174.324 80.2646C174.172 80.6162 173.955 80.9238 173.674 81.1875C173.926 81.457 174.573 81.5918 175.616 81.5918C176.091 81.5918 176.524 81.5156 176.917 81.3633C177.315 81.2109 177.685 80.959 178.024 80.6074C178.37 80.25 178.666 79.7959 178.912 79.2451C179.158 78.6885 179.36 77.9941 179.519 77.1621C179.677 76.3242 179.776 75.3691 179.817 74.2969C179.349 74.8125 178.754 75.2197 178.033 75.5186C177.313 75.8174 176.507 75.9668 175.616 75.9668C174.521 75.9668 173.495 75.791 172.54 75.4395C171.585 75.0879 170.765 74.6045 170.079 73.9893C169.399 73.374 168.863 72.6299 168.471 71.7568C168.078 70.8838 167.882 69.9434 167.882 68.9355C167.882 68.4727 167.935 68.0098 168.04 67.5469C168.151 67.084 168.321 66.6211 168.55 66.1582C168.784 65.6953 169.068 65.2559 169.402 64.8398C169.736 64.4238 170.147 64.0371 170.633 63.6797C171.119 63.3164 171.652 63.0059 172.232 62.748C172.818 62.4844 173.489 62.2793 174.245 62.1328C175.007 61.9805 175.815 61.9043 176.671 61.9043C177.942 61.9043 179.082 62.0742 180.09 62.4141C181.104 62.7539 181.965 63.2432 182.674 63.8818C183.389 64.5146 183.981 65.2939 184.449 66.2197C184.918 67.1455 185.261 68.1826 185.478 69.3311C185.7 70.4736 185.812 71.7393 185.812 73.1279C185.812 74.458 185.656 75.7148 185.346 76.8984C185.041 78.0762 184.607 79.1191 184.045 80.0273C183.482 80.9355 182.823 81.7207 182.067 82.3828C181.317 83.0391 180.48 83.54 179.554 83.8857C178.634 84.2314 177.673 84.4043 176.671 84.4043C174.11 84.4043 172.18 83.9355 170.879 82.998C169.584 82.0547 168.937 80.7656 168.937 79.1309ZM179.782 70.957C179.718 69.8027 179.601 68.8184 179.431 68.0039C179.267 67.1895 179.047 66.5449 178.772 66.0703C178.502 65.5957 178.194 65.2529 177.849 65.042C177.509 64.8252 177.116 64.7168 176.671 64.7168C176.319 64.7168 176.003 64.7607 175.722 64.8486C175.44 64.9307 175.2 65.0449 175.001 65.1914C174.808 65.332 174.641 65.5166 174.5 65.7451C174.359 65.9736 174.248 66.208 174.166 66.4482C174.084 66.6885 174.02 66.9756 173.973 67.3096C173.926 67.6436 173.894 67.96 173.876 68.2588C173.864 68.5518 173.858 68.8945 173.858 69.2871C173.858 70.0137 173.938 70.6377 174.096 71.1592C174.26 71.6748 174.491 72.0762 174.79 72.3633C175.089 72.6445 175.42 72.8467 175.783 72.9697C176.147 73.0928 176.56 73.1543 177.022 73.1543C177.544 73.1543 178.054 72.9521 178.552 72.5479C179.05 72.1436 179.46 71.6133 179.782 70.957ZM205.533 67.125C205.533 67.9043 205.257 68.5693 204.707 69.1201C204.162 69.665 203.5 69.9375 202.72 69.9375C201.941 69.9375 201.276 69.665 200.725 69.1201C200.18 68.5693 199.908 67.9043 199.908 67.125C199.908 66.7266 199.984 66.3516 200.136 66C200.295 65.6426 200.514 65.332 200.796 65.0684C200.544 64.7988 199.896 64.6641 198.853 64.6641C198.379 64.6641 197.942 64.7402 197.544 64.8926C197.151 65.0449 196.782 65.2998 196.436 65.6572C196.096 66.0088 195.803 66.4629 195.557 67.0195C195.311 67.5703 195.109 68.2646 194.951 69.1025C194.793 69.9346 194.693 70.8867 194.652 71.959C195.121 71.4434 195.715 71.0361 196.436 70.7373C197.157 70.4385 197.963 70.2891 198.853 70.2891C199.949 70.2891 200.974 70.4648 201.929 70.8164C202.884 71.168 203.702 71.6514 204.381 72.2666C205.067 72.8818 205.606 73.626 205.999 74.499C206.391 75.3721 206.588 76.3125 206.588 77.3203C206.588 77.7832 206.532 78.2461 206.421 78.709C206.315 79.1719 206.145 79.6348 205.911 80.0977C205.682 80.5605 205.401 81 205.067 81.416C204.733 81.832 204.323 82.2217 203.837 82.585C203.35 82.9424 202.814 83.2529 202.228 83.5166C201.648 83.7744 200.977 83.9766 200.215 84.123C199.46 84.2754 198.654 84.3516 197.798 84.3516C196.527 84.3516 195.384 84.1816 194.371 83.8418C193.363 83.502 192.502 83.0156 191.787 82.3828C191.078 81.7441 190.489 80.9619 190.02 80.0361C189.551 79.1104 189.206 78.0762 188.983 76.9336C188.766 75.7852 188.658 74.5166 188.658 73.1279C188.658 71.7979 188.81 70.5439 189.115 69.3662C189.425 68.1826 189.862 67.1367 190.424 66.2285C190.987 65.3203 191.643 64.5381 192.393 63.8818C193.149 63.2197 193.987 62.7158 194.907 62.3701C195.833 62.0244 196.796 61.8516 197.798 61.8516C200.359 61.8516 202.287 62.3232 203.582 63.2666C204.882 64.2041 205.533 65.4902 205.533 67.125ZM194.687 75.2988C194.752 76.4531 194.866 77.4375 195.03 78.252C195.2 79.0664 195.42 79.7109 195.689 80.1855C195.964 80.6602 196.272 81.0059 196.612 81.2227C196.958 81.4336 197.353 81.5391 197.798 81.5391C198.15 81.5391 198.466 81.498 198.748 81.416C199.029 81.3281 199.266 81.2139 199.46 81.0732C199.659 80.9268 199.829 80.7393 199.969 80.5107C200.11 80.2822 200.221 80.0479 200.303 79.8076C200.385 79.5674 200.45 79.2803 200.497 78.9463C200.544 78.6123 200.573 78.2988 200.585 78.0059C200.602 77.707 200.611 77.3613 200.611 76.9688C200.611 76.2422 200.529 75.6211 200.365 75.1055C200.207 74.584 199.978 74.1826 199.679 73.9014C199.38 73.6143 199.049 73.4092 198.686 73.2861C198.323 73.1631 197.91 73.1016 197.447 73.1016C196.925 73.1016 196.416 73.3037 195.918 73.708C195.42 74.1123 195.009 74.6426 194.687 75.2988ZM210.096 83.5723C209.733 83.2051 209.551 82.7617 209.551 82.2422C209.551 81.7227 209.733 81.2812 210.096 80.918C210.463 80.5508 210.906 80.3672 211.426 80.3672C211.945 80.3672 212.387 80.5508 212.75 80.918C213.117 81.2812 213.301 81.7227 213.301 82.2422C213.301 82.7617 213.117 83.2051 212.75 83.5723C212.387 83.9355 211.945 84.1172 211.426 84.1172C210.906 84.1172 210.463 83.9355 210.096 83.5723ZM215.902 84C215.902 83.6758 215.933 83.3555 215.995 83.0391C216.062 82.7227 216.15 82.4258 216.259 82.1484C216.368 81.8711 216.507 81.5918 216.675 81.3105C216.847 81.0254 217.021 80.7656 217.196 80.5312C217.376 80.293 217.585 80.0488 217.823 79.7988C218.062 79.5449 218.286 79.3184 218.497 79.1191C218.712 78.9199 218.954 78.707 219.224 78.4805C219.497 78.25 219.739 78.0508 219.95 77.8828C220.161 77.7148 220.402 77.5273 220.671 77.3203C220.738 77.2695 220.788 77.2305 220.823 77.2031C221.456 76.7109 221.927 76.1582 222.236 75.5449C222.544 74.9316 222.698 74.3125 222.698 73.6875C222.698 72.8633 222.478 72.2285 222.036 71.7832C221.599 71.334 220.96 71.1094 220.12 71.1094C219.753 71.1094 219.376 71.1973 218.989 71.373C218.607 71.5449 218.286 71.7754 218.029 72.0645C218.489 72.123 218.874 72.3301 219.183 72.6855C219.495 73.0371 219.652 73.4492 219.652 73.9219C219.652 74.4414 219.468 74.8848 219.101 75.252C218.738 75.6152 218.296 75.7969 217.777 75.7969C217.413 75.7969 217.081 75.7031 216.78 75.5156C216.48 75.3242 216.251 75.0703 216.095 74.7539C215.861 74.3125 215.743 73.8398 215.743 73.3359C215.743 72.9258 215.821 72.5215 215.978 72.123C216.134 71.7246 216.366 71.3535 216.675 71.0098C216.984 70.6621 217.349 70.3555 217.771 70.0898C218.193 69.8242 218.687 69.6152 219.253 69.4629C219.82 69.3105 220.421 69.2344 221.058 69.2344C221.851 69.2344 222.568 69.3145 223.208 69.4746C223.853 69.6309 224.388 69.8438 224.814 70.1133C225.239 70.3789 225.595 70.6953 225.88 71.0625C226.165 71.4258 226.37 71.8066 226.495 72.2051C226.62 72.5996 226.683 73.0156 226.683 73.4531C226.683 73.8789 226.636 74.2812 226.542 74.6602C226.452 75.0352 226.331 75.3652 226.179 75.6504C226.03 75.9355 225.843 76.2109 225.616 76.4766C225.39 76.7422 225.159 76.9707 224.925 77.1621C224.695 77.3535 224.433 77.5508 224.14 77.7539C223.847 77.957 223.575 78.1348 223.325 78.2871C223.075 78.4355 222.802 78.6055 222.505 78.7969C222.212 78.9844 221.964 79.1562 221.761 79.3125C221.554 79.4688 221.308 79.6445 221.023 79.8398C220.741 80.0352 220.519 80.1914 220.355 80.3086C220.195 80.4219 220.013 80.5742 219.81 80.7656C219.611 80.957 219.429 81.166 219.265 81.3926C219.71 81.2559 220.152 81.1875 220.589 81.1875H223.636C223.8 81.1875 223.946 81.125 224.075 81C224.204 80.8711 224.302 80.707 224.368 80.5078C224.439 80.3086 224.489 80.1074 224.521 79.9043C224.556 79.7012 224.573 79.5039 224.573 79.3125V78.375H226.683V84H215.902ZM234.44 69.4688H237.252V82.125H239.596V84H231.158V82.125H233.502V73.2188H231.158V71.3438H231.627C231.881 71.3438 232.1 71.332 232.283 71.3086C232.467 71.2812 232.655 71.2305 232.846 71.1562C233.041 71.0781 233.221 70.9707 233.385 70.834C233.549 70.6934 233.719 70.5117 233.895 70.2891C234.071 70.0664 234.252 69.793 234.44 69.4688Z" fill="#41558D"/>
<path d="M129.56 108.144C128.736 108.144 128.024 107.964 127.424 107.604C126.832 107.236 126.372 106.728 126.044 106.08C125.724 105.424 125.564 104.664 125.564 103.8C125.564 102.944 125.724 102.188 126.044 101.532C126.372 100.876 126.832 100.368 127.424 100.008C128.024 99.64 128.736 99.456 129.56 99.456C130.544 99.456 131.34 99.692 131.948 100.164C132.564 100.636 132.956 101.3 133.124 102.156H131.804C131.684 101.66 131.436 101.264 131.06 100.968C130.692 100.672 130.192 100.524 129.56 100.524C128.992 100.524 128.5 100.656 128.084 100.92C127.668 101.184 127.348 101.56 127.124 102.048C126.9 102.536 126.788 103.12 126.788 103.8C126.788 104.48 126.9 105.068 127.124 105.564C127.348 106.052 127.668 106.428 128.084 106.692C128.5 106.948 128.992 107.076 129.56 107.076C130.192 107.076 130.692 106.936 131.06 106.656C131.436 106.368 131.684 105.98 131.804 105.492H133.124C132.956 106.324 132.564 106.976 131.948 107.448C131.34 107.912 130.544 108.144 129.56 108.144ZM136.72 108.144C136.248 108.144 135.836 108.048 135.484 107.856C135.14 107.664 134.872 107.376 134.68 106.992C134.496 106.608 134.404 106.124 134.404 105.54V101.952H135.604V105.408C135.604 105.976 135.728 106.404 135.976 106.692C136.224 106.98 136.58 107.124 137.044 107.124C137.356 107.124 137.636 107.048 137.884 106.896C138.14 106.744 138.34 106.524 138.484 106.236C138.628 105.948 138.7 105.596 138.7 105.18V101.952H139.9V108H138.832L138.748 106.968C138.564 107.336 138.296 107.624 137.944 107.832C137.592 108.04 137.184 108.144 136.72 108.144ZM141.543 108V101.952H142.623L142.731 103.092C142.867 102.82 143.043 102.592 143.259 102.408C143.475 102.216 143.727 102.068 144.015 101.964C144.311 101.86 144.647 101.808 145.023 101.808V103.08H144.591C144.343 103.08 144.107 103.112 143.883 103.176C143.659 103.232 143.459 103.332 143.283 103.476C143.115 103.62 142.983 103.816 142.887 104.064C142.791 104.312 142.743 104.62 142.743 104.988V108H141.543ZM146.125 108V101.952H147.205L147.313 103.092C147.449 102.82 147.625 102.592 147.841 102.408C148.057 102.216 148.309 102.068 148.597 101.964C148.893 101.86 149.229 101.808 149.605 101.808V103.08H149.173C148.925 103.08 148.689 103.112 148.465 103.176C148.241 103.232 148.041 103.332 147.865 103.476C147.697 103.62 147.565 103.816 147.469 104.064C147.373 104.312 147.325 104.62 147.325 104.988V108H146.125ZM153.267 108.144C152.691 108.144 152.179 108.012 151.731 107.748C151.283 107.484 150.931 107.116 150.675 106.644C150.427 106.172 150.303 105.624 150.303 105C150.303 104.36 150.427 103.804 150.675 103.332C150.931 102.852 151.283 102.48 151.731 102.216C152.179 101.944 152.699 101.808 153.291 101.808C153.883 101.808 154.391 101.94 154.815 102.204C155.239 102.468 155.567 102.82 155.799 103.26C156.031 103.692 156.147 104.172 156.147 104.7C156.147 104.78 156.143 104.868 156.135 104.964C156.135 105.052 156.131 105.152 156.123 105.264H151.179V104.412H154.947C154.923 103.908 154.755 103.516 154.443 103.236C154.131 102.948 153.743 102.804 153.279 102.804C152.951 102.804 152.651 102.88 152.379 103.032C152.107 103.176 151.887 103.392 151.719 103.68C151.559 103.96 151.479 104.316 151.479 104.748V105.084C151.479 105.532 151.559 105.912 151.719 106.224C151.887 106.528 152.107 106.76 152.379 106.92C152.651 107.072 152.947 107.148 153.267 107.148C153.651 107.148 153.967 107.064 154.215 106.896C154.463 106.728 154.647 106.5 154.767 106.212H155.967C155.863 106.58 155.687 106.912 155.439 107.208C155.191 107.496 154.883 107.724 154.515 107.892C154.155 108.06 153.739 108.144 153.267 108.144ZM157.48 108V101.952H158.56L158.632 102.984C158.824 102.624 159.096 102.34 159.448 102.132C159.8 101.916 160.204 101.808 160.66 101.808C161.14 101.808 161.552 101.904 161.896 102.096C162.24 102.288 162.508 102.58 162.7 102.972C162.892 103.356 162.988 103.84 162.988 104.424V108H161.788V104.544C161.788 103.984 161.664 103.56 161.416 103.272C161.168 102.984 160.808 102.84 160.336 102.84C160.024 102.84 159.744 102.916 159.496 103.068C159.248 103.212 159.048 103.428 158.896 103.716C158.752 104.004 158.68 104.356 158.68 104.772V108H157.48ZM167.019 108C166.635 108 166.303 107.94 166.023 107.82C165.743 107.7 165.527 107.5 165.375 107.22C165.223 106.94 165.147 106.56 165.147 106.08V102.972H164.103V101.952H165.147L165.291 100.44H166.347V101.952H168.063V102.972H166.347V106.092C166.347 106.436 166.419 106.672 166.563 106.8C166.707 106.92 166.955 106.98 167.307 106.98H168.003V108H167.019ZM175.001 108L171.881 99.6H173.177L175.721 106.752L178.289 99.6H179.561L176.441 108H175.001ZM181.914 108.144C181.418 108.144 181.006 108.06 180.678 107.892C180.35 107.724 180.106 107.5 179.946 107.22C179.786 106.932 179.706 106.624 179.706 106.296C179.706 105.896 179.81 105.556 180.018 105.276C180.226 104.988 180.522 104.768 180.906 104.616C181.29 104.464 181.75 104.388 182.286 104.388H183.858C183.858 104.036 183.806 103.744 183.702 103.512C183.598 103.28 183.442 103.108 183.234 102.996C183.034 102.876 182.778 102.816 182.466 102.816C182.106 102.816 181.798 102.904 181.542 103.08C181.286 103.248 181.126 103.5 181.062 103.836H179.862C179.91 103.412 180.054 103.052 180.294 102.756C180.542 102.452 180.858 102.22 181.242 102.06C181.626 101.892 182.034 101.808 182.466 101.808C183.034 101.808 183.51 101.908 183.894 102.108C184.278 102.308 184.566 102.592 184.758 102.96C184.958 103.32 185.058 103.752 185.058 104.256V108H184.014L183.918 106.98C183.83 107.14 183.726 107.292 183.606 107.436C183.486 107.58 183.342 107.704 183.174 107.808C183.014 107.912 182.826 107.992 182.61 108.048C182.402 108.112 182.17 108.144 181.914 108.144ZM182.142 107.172C182.398 107.172 182.63 107.12 182.838 107.016C183.046 106.912 183.222 106.772 183.366 106.596C183.518 106.412 183.63 106.208 183.702 105.984C183.782 105.752 183.826 105.516 183.834 105.276V105.24H182.406C182.062 105.24 181.782 105.284 181.566 105.372C181.358 105.452 181.206 105.564 181.11 105.708C181.014 105.852 180.966 106.02 180.966 106.212C180.966 106.412 181.01 106.584 181.098 106.728C181.194 106.864 181.33 106.972 181.506 107.052C181.682 107.132 181.894 107.172 182.142 107.172ZM186.589 108V99.36H187.789V108H186.589ZM191.657 108.144C191.185 108.144 190.773 108.048 190.421 107.856C190.077 107.664 189.809 107.376 189.617 106.992C189.433 106.608 189.341 106.124 189.341 105.54V101.952H190.541V105.408C190.541 105.976 190.665 106.404 190.913 106.692C191.161 106.98 191.517 107.124 191.981 107.124C192.293 107.124 192.573 107.048 192.821 106.896C193.077 106.744 193.277 106.524 193.421 106.236C193.565 105.948 193.637 105.596 193.637 105.18V101.952H194.837V108H193.769L193.685 106.968C193.501 107.336 193.233 107.624 192.881 107.832C192.529 108.04 192.121 108.144 191.657 108.144ZM199.216 108.144C198.64 108.144 198.128 108.012 197.68 107.748C197.232 107.484 196.88 107.116 196.624 106.644C196.376 106.172 196.252 105.624 196.252 105C196.252 104.36 196.376 103.804 196.624 103.332C196.88 102.852 197.232 102.48 197.68 102.216C198.128 101.944 198.648 101.808 199.24 101.808C199.832 101.808 200.34 101.94 200.764 102.204C201.188 102.468 201.516 102.82 201.748 103.26C201.98 103.692 202.096 104.172 202.096 104.7C202.096 104.78 202.092 104.868 202.084 104.964C202.084 105.052 202.08 105.152 202.072 105.264H197.128V104.412H200.896C200.872 103.908 200.704 103.516 200.392 103.236C200.08 102.948 199.692 102.804 199.228 102.804C198.9 102.804 198.6 102.88 198.328 103.032C198.056 103.176 197.836 103.392 197.668 103.68C197.508 103.96 197.428 104.316 197.428 104.748V105.084C197.428 105.532 197.508 105.912 197.668 106.224C197.836 106.528 198.056 106.76 198.328 106.92C198.6 107.072 198.896 107.148 199.216 107.148C199.6 107.148 199.916 107.064 200.164 106.896C200.412 106.728 200.596 106.5 200.716 106.212H201.916C201.812 106.58 201.636 106.912 201.388 107.208C201.14 107.496 200.832 107.724 200.464 107.892C200.104 108.06 199.688 108.144 199.216 108.144Z" fill="#727272"/>
<path d="M61.204 145.192C60.0947 145.192 59.2467 144.893 58.66 144.296C58.0733 143.688 57.78 142.813 57.78 141.672V139.448C58.7827 139.448 59.5827 139.421 60.18 139.368C60.7773 139.315 61.22 139.197 61.508 139.016C61.8067 138.824 61.9987 138.547 62.084 138.184C62.18 137.821 62.228 137.325 62.228 136.696V134.52H64.02V136.68C64.02 137.395 63.9453 138.008 63.796 138.52C63.6573 139.032 63.4173 139.453 63.076 139.784C62.7347 140.115 62.276 140.36 61.7 140.52C61.1347 140.669 60.4307 140.744 59.588 140.744V141.848C59.588 142.403 59.7053 142.856 59.94 143.208C60.1747 143.549 60.5907 143.72 61.188 143.72C61.732 143.72 62.1213 143.56 62.356 143.24C62.6013 142.92 62.724 142.472 62.724 141.896H64.516C64.484 142.952 64.1853 143.768 63.62 144.344C63.0653 144.909 62.26 145.192 61.204 145.192ZM57.252 137.848V136.6H65.828V137.848H57.252ZM57.252 135.128V133.8H65.828V135.128H57.252ZM75.1594 145.08C74.4234 145.08 73.762 144.952 73.1754 144.696C72.5887 144.44 72.114 144.045 71.7514 143.512C71.3994 142.979 71.202 142.312 71.1594 141.512H73.0314C73.0847 142.088 73.2874 142.563 73.6394 142.936C73.9914 143.309 74.5034 143.496 75.1754 143.496C75.8154 143.496 76.322 143.315 76.6954 142.952C77.0687 142.579 77.2554 142.083 77.2554 141.464C77.2554 140.824 77.058 140.317 76.6634 139.944C76.2687 139.571 75.7354 139.384 75.0634 139.384H73.4634V138.104L76.7754 134.936L77.4314 135.432H71.8154V133.8H78.6154V135.256L75.0154 138.648L74.1194 138.072H75.2714C76.4554 138.072 77.3887 138.371 78.0714 138.968C78.754 139.565 79.0954 140.413 79.0954 141.512C79.0954 142.237 78.9354 142.867 78.6154 143.4C78.2954 143.933 77.842 144.349 77.2554 144.648C76.6687 144.936 75.97 145.08 75.1594 145.08ZM80.2876 146.968L81.1996 143.064H83.0716L81.5516 146.968H80.2876ZM88.7126 145.192C87.9126 145.192 87.2193 145.053 86.6326 144.776C86.0566 144.488 85.6033 144.099 85.2726 143.608C84.942 143.107 84.7446 142.541 84.6806 141.912H86.5526C86.6486 142.381 86.8886 142.776 87.2726 143.096C87.6566 143.405 88.1366 143.56 88.7126 143.56C89.15 143.56 89.5233 143.459 89.8326 143.256C90.142 143.043 90.382 142.76 90.5526 142.408C90.734 142.045 90.8246 141.64 90.8246 141.192C90.8246 140.733 90.734 140.333 90.5526 139.992C90.382 139.651 90.142 139.389 89.8326 139.208C89.5233 139.016 89.166 138.92 88.7606 138.92C88.2593 138.92 87.8273 139.037 87.4646 139.272C87.1126 139.496 86.8566 139.779 86.6966 140.12H84.8406L85.7686 133.8H91.9446V135.48H87.2086L86.6966 138.248C86.942 137.981 87.2673 137.768 87.6726 137.608C88.078 137.437 88.542 137.352 89.0646 137.352C89.6513 137.352 90.1686 137.453 90.6166 137.656C91.0646 137.859 91.4433 138.136 91.7526 138.488C92.062 138.84 92.2913 139.251 92.4406 139.72C92.6006 140.179 92.6806 140.664 92.6806 141.176C92.6806 141.752 92.5846 142.285 92.3926 142.776C92.2006 143.256 91.9286 143.677 91.5766 144.04C91.2353 144.403 90.8193 144.685 90.3286 144.888C89.8486 145.091 89.31 145.192 88.7126 145.192ZM99.1313 145.192C98.1179 145.192 97.2486 144.952 96.5233 144.472C95.7979 143.981 95.2379 143.304 94.8433 142.44C94.4593 141.565 94.2673 140.552 94.2673 139.4C94.2673 138.248 94.4593 137.24 94.8433 136.376C95.2379 135.501 95.7979 134.824 96.5233 134.344C97.2486 133.853 98.1179 133.608 99.1313 133.608C100.134 133.608 100.993 133.853 101.707 134.344C102.433 134.824 102.987 135.501 103.371 136.376C103.766 137.24 103.963 138.248 103.963 139.4C103.963 140.552 103.766 141.565 103.371 142.44C102.987 143.304 102.433 143.981 101.707 144.472C100.993 144.952 100.134 145.192 99.1313 145.192ZM99.1153 143.464C99.6806 143.464 100.182 143.304 100.619 142.984C101.057 142.653 101.393 142.184 101.627 141.576C101.873 140.968 101.995 140.243 101.995 139.4C101.995 138.557 101.873 137.832 101.627 137.224C101.393 136.616 101.057 136.152 100.619 135.832C100.182 135.501 99.6806 135.336 99.1153 135.336C98.5499 135.336 98.0486 135.501 97.6113 135.832C97.1739 136.152 96.8326 136.616 96.5873 137.224C96.3526 137.832 96.2353 138.557 96.2353 139.4C96.2353 140.243 96.3526 140.968 96.5873 141.576C96.8326 142.184 97.1739 142.653 97.6113 142.984C98.0486 143.304 98.5499 143.464 99.1153 143.464ZM110.303 145.192C109.29 145.192 108.42 144.952 107.695 144.472C106.97 143.981 106.41 143.304 106.015 142.44C105.631 141.565 105.439 140.552 105.439 139.4C105.439 138.248 105.631 137.24 106.015 136.376C106.41 135.501 106.97 134.824 107.695 134.344C108.42 133.853 109.29 133.608 110.303 133.608C111.306 133.608 112.164 133.853 112.879 134.344C113.604 134.824 114.159 135.501 114.543 136.376C114.938 137.24 115.135 138.248 115.135 139.4C115.135 140.552 114.938 141.565 114.543 142.44C114.159 143.304 113.604 143.981 112.879 144.472C112.164 144.952 111.306 145.192 110.303 145.192ZM110.287 143.464C110.852 143.464 111.354 143.304 111.791 142.984C112.228 142.653 112.564 142.184 112.799 141.576C113.044 140.968 113.167 140.243 113.167 139.4C113.167 138.557 113.044 137.832 112.799 137.224C112.564 136.616 112.228 136.152 111.791 135.832C111.354 135.501 110.852 135.336 110.287 135.336C109.722 135.336 109.22 135.501 108.783 135.832C108.346 136.152 108.004 136.616 107.759 137.224C107.524 137.832 107.407 138.557 107.407 139.4C107.407 140.243 107.524 140.968 107.759 141.576C108.004 142.184 108.346 142.653 108.783 142.984C109.22 143.304 109.722 143.464 110.287 143.464ZM117.303 145.06C117.031 145.06 116.811 144.976 116.643 144.808C116.475 144.64 116.391 144.44 116.391 144.208C116.391 143.96 116.475 143.752 116.643 143.584C116.811 143.416 117.031 143.332 117.303 143.332C117.567 143.332 117.783 143.416 117.951 143.584C118.119 143.752 118.203 143.96 118.203 144.208C118.203 144.44 118.119 144.64 117.951 144.808C117.783 144.976 117.567 145.06 117.303 145.06ZM120.451 145V138.244L119.071 138.556V137.464L121.039 136.6H121.939V145H120.451ZM119.203 143.848H123.199V145H119.203V143.848ZM125.303 145V138.244L123.923 138.556V137.464L125.891 136.6H126.791V145H125.303ZM124.055 143.848H128.051V145H124.055V143.848Z" fill="#2D2D2D"/>
<path d="M44.876 164V155.6H46.076V164H44.876ZM47.7691 164V157.952H48.8491L48.9211 158.984C49.1131 158.624 49.3851 158.34 49.7371 158.132C50.0891 157.916 50.4931 157.808 50.9491 157.808C51.4291 157.808 51.8411 157.904 52.1851 158.096C52.5291 158.288 52.7971 158.58 52.9891 158.972C53.1811 159.356 53.2771 159.84 53.2771 160.424V164H52.0771V160.544C52.0771 159.984 51.9531 159.56 51.7051 159.272C51.4571 158.984 51.0971 158.84 50.6251 158.84C50.3131 158.84 50.0331 158.916 49.7851 159.068C49.5371 159.212 49.3371 159.428 49.1851 159.716C49.0411 160.004 48.9691 160.356 48.9691 160.772V164H47.7691ZM56.4343 164L54.1663 157.952H55.4263L57.1423 162.848L58.8703 157.952H60.1063L57.8503 164H56.4343ZM63.6301 164.144C63.0541 164.144 62.5421 164.012 62.0941 163.748C61.6461 163.484 61.2941 163.116 61.0381 162.644C60.7901 162.172 60.6661 161.624 60.6661 161C60.6661 160.36 60.7901 159.804 61.0381 159.332C61.2941 158.852 61.6461 158.48 62.0941 158.216C62.5421 157.944 63.0621 157.808 63.6541 157.808C64.2461 157.808 64.7541 157.94 65.1781 158.204C65.6021 158.468 65.9301 158.82 66.1621 159.26C66.3941 159.692 66.5101 160.172 66.5101 160.7C66.5101 160.78 66.5061 160.868 66.4981 160.964C66.4981 161.052 66.4941 161.152 66.4861 161.264H61.5421V160.412H65.3101C65.2861 159.908 65.1181 159.516 64.8061 159.236C64.4941 158.948 64.1061 158.804 63.6421 158.804C63.3141 158.804 63.0141 158.88 62.7421 159.032C62.4701 159.176 62.2501 159.392 62.0821 159.68C61.9221 159.96 61.8421 160.316 61.8421 160.748V161.084C61.8421 161.532 61.9221 161.912 62.0821 162.224C62.2501 162.528 62.4701 162.76 62.7421 162.92C63.0141 163.072 63.3101 163.148 63.6301 163.148C64.0141 163.148 64.3301 163.064 64.5781 162.896C64.8261 162.728 65.0101 162.5 65.1301 162.212H66.3301C66.2261 162.58 66.0501 162.912 65.8021 163.208C65.5541 163.496 65.2461 163.724 64.8781 163.892C64.5181 164.06 64.1021 164.144 63.6301 164.144ZM70.1833 164.144C69.6713 164.144 69.2233 164.06 68.8393 163.892C68.4553 163.724 68.1513 163.488 67.9273 163.184C67.7033 162.88 67.5673 162.524 67.5193 162.116H68.7433C68.7833 162.308 68.8593 162.484 68.9713 162.644C69.0913 162.804 69.2513 162.932 69.4513 163.028C69.6593 163.124 69.9033 163.172 70.1833 163.172C70.4473 163.172 70.6633 163.136 70.8313 163.064C71.0073 162.984 71.1353 162.88 71.2153 162.752C71.2953 162.616 71.3353 162.472 71.3353 162.32C71.3353 162.096 71.2793 161.928 71.1673 161.816C71.0633 161.696 70.9033 161.604 70.6873 161.54C70.4793 161.468 70.2273 161.404 69.9313 161.348C69.6513 161.3 69.3793 161.236 69.1153 161.156C68.8593 161.068 68.6273 160.96 68.4193 160.832C68.2193 160.704 68.0593 160.544 67.9393 160.352C67.8193 160.152 67.7593 159.908 67.7593 159.62C67.7593 159.276 67.8513 158.968 68.0353 158.696C68.2193 158.416 68.4793 158.2 68.8153 158.048C69.1593 157.888 69.5633 157.808 70.0273 157.808C70.6993 157.808 71.2393 157.968 71.6473 158.288C72.0553 158.608 72.2953 159.06 72.3673 159.644H71.2033C71.1713 159.372 71.0513 159.164 70.8433 159.02C70.6353 158.868 70.3593 158.792 70.0153 158.792C69.6713 158.792 69.4073 158.86 69.2233 158.996C69.0393 159.132 68.9473 159.312 68.9473 159.536C68.9473 159.68 68.9993 159.808 69.1033 159.92C69.2073 160.032 69.3593 160.128 69.5593 160.208C69.7673 160.28 70.0193 160.348 70.3153 160.412C70.7393 160.492 71.1193 160.592 71.4553 160.712C71.7913 160.832 72.0593 161.008 72.2593 161.24C72.4593 161.472 72.5593 161.804 72.5593 162.236C72.5673 162.612 72.4713 162.944 72.2713 163.232C72.0793 163.52 71.8033 163.744 71.4433 163.904C71.0913 164.064 70.6713 164.144 70.1833 164.144ZM76.2222 164C75.8382 164 75.5062 163.94 75.2262 163.82C74.9462 163.7 74.7302 163.5 74.5782 163.22C74.4262 162.94 74.3502 162.56 74.3502 162.08V158.972H73.3062V157.952H74.3502L74.4942 156.44H75.5502V157.952H77.2662V158.972H75.5502V162.092C75.5502 162.436 75.6222 162.672 75.7662 162.8C75.9102 162.92 76.1582 162.98 76.5102 162.98H77.2062V164H76.2222ZM81.1614 164.144C80.5854 164.144 80.0734 164.012 79.6254 163.748C79.1774 163.484 78.8254 163.116 78.5694 162.644C78.3214 162.172 78.1974 161.624 78.1974 161C78.1974 160.36 78.3214 159.804 78.5694 159.332C78.8254 158.852 79.1774 158.48 79.6254 158.216C80.0734 157.944 80.5934 157.808 81.1854 157.808C81.7774 157.808 82.2854 157.94 82.7094 158.204C83.1334 158.468 83.4614 158.82 83.6934 159.26C83.9254 159.692 84.0414 160.172 84.0414 160.7C84.0414 160.78 84.0374 160.868 84.0294 160.964C84.0294 161.052 84.0254 161.152 84.0174 161.264H79.0734V160.412H82.8414C82.8174 159.908 82.6494 159.516 82.3374 159.236C82.0254 158.948 81.6374 158.804 81.1734 158.804C80.8454 158.804 80.5454 158.88 80.2734 159.032C80.0014 159.176 79.7814 159.392 79.6134 159.68C79.4534 159.96 79.3734 160.316 79.3734 160.748V161.084C79.3734 161.532 79.4534 161.912 79.6134 162.224C79.7814 162.528 80.0014 162.76 80.2734 162.92C80.5454 163.072 80.8414 163.148 81.1614 163.148C81.5454 163.148 81.8614 163.064 82.1094 162.896C82.3574 162.728 82.5414 162.5 82.6614 162.212H83.8614C83.7574 162.58 83.5814 162.912 83.3334 163.208C83.0854 163.496 82.7774 163.724 82.4094 163.892C82.0494 164.06 81.6334 164.144 81.1614 164.144ZM88.0626 164.144C87.4866 164.144 86.9786 164.008 86.5386 163.736C86.0986 163.456 85.7546 163.08 85.5066 162.608C85.2666 162.128 85.1466 161.584 85.1466 160.976C85.1466 160.36 85.2666 159.816 85.5066 159.344C85.7546 158.872 86.0986 158.5 86.5386 158.228C86.9866 157.948 87.4986 157.808 88.0746 157.808C88.5466 157.808 88.9626 157.904 89.3226 158.096C89.6826 158.28 89.9626 158.544 90.1626 158.888V155.36H91.3626V164H90.2826L90.1626 163.064C90.0426 163.248 89.8866 163.424 89.6946 163.592C89.5026 163.752 89.2706 163.884 88.9986 163.988C88.7266 164.092 88.4146 164.144 88.0626 164.144ZM88.2546 163.1C88.6306 163.1 88.9626 163.012 89.2506 162.836C89.5386 162.66 89.7586 162.412 89.9106 162.092C90.0706 161.772 90.1506 161.4 90.1506 160.976C90.1506 160.552 90.0706 160.184 89.9106 159.872C89.7586 159.552 89.5386 159.304 89.2506 159.128C88.9626 158.944 88.6306 158.852 88.2546 158.852C87.8946 158.852 87.5706 158.944 87.2826 159.128C86.9946 159.304 86.7706 159.552 86.6106 159.872C86.4506 160.184 86.3706 160.552 86.3706 160.976C86.3706 161.4 86.4506 161.772 86.6106 162.092C86.7706 162.412 86.9946 162.66 87.2826 162.836C87.5706 163.012 87.8946 163.1 88.2546 163.1ZM95.5938 164L98.6778 155.6H99.9858L103.07 164H101.786L99.3258 157.04L96.8538 164H95.5938ZM96.9858 161.924L97.3218 160.964H101.27L101.606 161.924H96.9858ZM104.207 164V157.952H105.287L105.371 158.804C105.563 158.492 105.819 158.248 106.139 158.072C106.459 157.896 106.819 157.808 107.219 157.808C107.523 157.808 107.799 157.852 108.047 157.94C108.295 158.02 108.515 158.144 108.707 158.312C108.899 158.48 109.055 158.688 109.175 158.936C109.391 158.584 109.679 158.308 110.039 158.108C110.407 157.908 110.795 157.808 111.203 157.808C111.691 157.808 112.111 157.908 112.463 158.108C112.815 158.3 113.083 158.592 113.267 158.984C113.451 159.368 113.543 159.848 113.543 160.424V164H112.355V160.544C112.355 159.984 112.239 159.56 112.007 159.272C111.783 158.984 111.451 158.84 111.011 158.84C110.715 158.84 110.451 158.916 110.219 159.068C109.987 159.22 109.803 159.44 109.667 159.728C109.539 160.016 109.475 160.368 109.475 160.784V164H108.275V160.544C108.275 159.984 108.159 159.56 107.927 159.272C107.703 158.984 107.371 158.84 106.931 158.84C106.651 158.84 106.395 158.916 106.163 159.068C105.931 159.22 105.747 159.44 105.611 159.728C105.475 160.016 105.407 160.368 105.407 160.784V164H104.207ZM117.853 164.144C117.285 164.144 116.773 164.012 116.317 163.748C115.869 163.484 115.513 163.116 115.249 162.644C114.993 162.164 114.865 161.612 114.865 160.988C114.865 160.348 114.997 159.792 115.261 159.32C115.525 158.84 115.885 158.468 116.341 158.204C116.797 157.94 117.309 157.808 117.877 157.808C118.453 157.808 118.965 157.94 119.413 158.204C119.861 158.468 120.213 158.836 120.469 159.308C120.733 159.78 120.865 160.336 120.865 160.976C120.865 161.616 120.733 162.172 120.469 162.644C120.213 163.116 119.857 163.484 119.401 163.748C118.945 164.012 118.429 164.144 117.853 164.144ZM117.853 163.112C118.181 163.112 118.477 163.032 118.741 162.872C119.013 162.712 119.229 162.476 119.389 162.164C119.557 161.844 119.641 161.448 119.641 160.976C119.641 160.504 119.561 160.112 119.401 159.8C119.241 159.48 119.025 159.24 118.753 159.08C118.489 158.92 118.197 158.84 117.877 158.84C117.557 158.84 117.261 158.92 116.989 159.08C116.717 159.24 116.497 159.48 116.329 159.8C116.169 160.112 116.089 160.504 116.089 160.976C116.089 161.448 116.169 161.844 116.329 162.164C116.497 162.476 116.713 162.712 116.977 162.872C117.249 163.032 117.541 163.112 117.853 163.112ZM124.497 164.144C124.025 164.144 123.613 164.048 123.261 163.856C122.917 163.664 122.649 163.376 122.457 162.992C122.273 162.608 122.181 162.124 122.181 161.54V157.952H123.381V161.408C123.381 161.976 123.505 162.404 123.753 162.692C124.001 162.98 124.357 163.124 124.821 163.124C125.133 163.124 125.413 163.048 125.661 162.896C125.917 162.744 126.117 162.524 126.261 162.236C126.405 161.948 126.477 161.596 126.477 161.18V157.952H127.677V164H126.609L126.525 162.968C126.341 163.336 126.073 163.624 125.721 163.832C125.369 164.04 124.961 164.144 124.497 164.144ZM129.32 164V157.952H130.4L130.472 158.984C130.664 158.624 130.936 158.34 131.288 158.132C131.64 157.916 132.044 157.808 132.5 157.808C132.98 157.808 133.392 157.904 133.736 158.096C134.08 158.288 134.348 158.58 134.54 158.972C134.732 159.356 134.828 159.84 134.828 160.424V164H133.628V160.544C133.628 159.984 133.504 159.56 133.256 159.272C133.008 158.984 132.648 158.84 132.176 158.84C131.864 158.84 131.584 158.916 131.336 159.068C131.088 159.212 130.888 159.428 130.736 159.716C130.592 160.004 130.52 160.356 130.52 160.772V164H129.32ZM138.859 164C138.475 164 138.143 163.94 137.863 163.82C137.583 163.7 137.367 163.5 137.215 163.22C137.063 162.94 136.987 162.56 136.987 162.08V158.972H135.943V157.952H136.987L137.131 156.44H138.187V157.952H139.903V158.972H138.187V162.092C138.187 162.436 138.259 162.672 138.403 162.8C138.547 162.92 138.795 162.98 139.147 162.98H139.843V164H138.859Z" fill="#727272"/>
<path d="M210.704 145.192C209.595 145.192 208.747 144.893 208.16 144.296C207.573 143.688 207.28 142.813 207.28 141.672V139.448C208.283 139.448 209.083 139.421 209.68 139.368C210.277 139.315 210.72 139.197 211.008 139.016C211.307 138.824 211.499 138.547 211.584 138.184C211.68 137.821 211.728 137.325 211.728 136.696V134.52H213.52V136.68C213.52 137.395 213.445 138.008 213.296 138.52C213.157 139.032 212.917 139.453 212.576 139.784C212.235 140.115 211.776 140.36 211.2 140.52C210.635 140.669 209.931 140.744 209.088 140.744V141.848C209.088 142.403 209.205 142.856 209.44 143.208C209.675 143.549 210.091 143.72 210.688 143.72C211.232 143.72 211.621 143.56 211.856 143.24C212.101 142.92 212.224 142.472 212.224 141.896H214.016C213.984 142.952 213.685 143.768 213.12 144.344C212.565 144.909 211.76 145.192 210.704 145.192ZM206.752 137.848V136.6H215.328V137.848H206.752ZM206.752 135.128V133.8H215.328V135.128H206.752ZM223.587 143.96V136.76H225.235V143.96H223.587ZM220.579 141.16V139.56H228.259V141.16H220.579ZM231.66 145L234.94 140.28L235.004 140.904C234.726 141 234.449 141.085 234.172 141.16C233.894 141.235 233.601 141.272 233.292 141.272C232.577 141.272 231.942 141.123 231.388 140.824C230.844 140.515 230.417 140.077 230.108 139.512C229.798 138.947 229.644 138.291 229.644 137.544C229.644 136.755 229.814 136.067 230.156 135.48C230.508 134.893 230.988 134.435 231.596 134.104C232.204 133.773 232.892 133.608 233.66 133.608C234.481 133.608 235.196 133.779 235.804 134.12C236.412 134.461 236.881 134.931 237.212 135.528C237.553 136.115 237.724 136.787 237.724 137.544C237.724 138.12 237.628 138.691 237.436 139.256C237.244 139.811 236.934 140.403 236.508 141.032L233.836 145H231.66ZM233.66 139.768C234.108 139.768 234.497 139.677 234.828 139.496C235.158 139.304 235.409 139.037 235.58 138.696C235.761 138.355 235.852 137.965 235.852 137.528C235.852 136.845 235.654 136.301 235.26 135.896C234.865 135.48 234.332 135.272 233.66 135.272C232.998 135.272 232.47 135.48 232.076 135.896C231.681 136.301 231.484 136.84 231.484 137.512C231.484 137.96 231.569 138.355 231.74 138.696C231.921 139.037 232.177 139.304 232.508 139.496C232.838 139.677 233.222 139.768 233.66 139.768ZM242.832 145.192C242.022 145.192 241.312 145.021 240.704 144.68C240.096 144.328 239.622 143.859 239.28 143.272C238.95 142.675 238.784 142.003 238.784 141.256C238.784 140.669 238.88 140.099 239.072 139.544C239.264 138.989 239.574 138.397 240 137.768L242.672 133.8H244.848L241.568 138.52L241.488 137.896C241.776 137.789 242.059 137.704 242.336 137.64C242.614 137.565 242.902 137.528 243.2 137.528C243.926 137.528 244.56 137.683 245.104 137.992C245.659 138.291 246.091 138.723 246.4 139.288C246.71 139.843 246.864 140.499 246.864 141.256C246.864 142.045 246.688 142.733 246.336 143.32C245.995 143.907 245.52 144.365 244.912 144.696C244.304 145.027 243.611 145.192 242.832 145.192ZM242.832 143.528C243.504 143.528 244.038 143.325 244.432 142.92C244.827 142.504 245.024 141.96 245.024 141.288C245.024 140.829 244.934 140.435 244.752 140.104C244.571 139.763 244.315 139.501 243.984 139.32C243.664 139.128 243.28 139.032 242.832 139.032C242.395 139.032 242.011 139.128 241.68 139.32C241.35 139.501 241.094 139.763 240.912 140.104C240.731 140.435 240.64 140.824 240.64 141.272C240.64 141.955 240.838 142.504 241.232 142.92C241.638 143.325 242.171 143.528 242.832 143.528ZM249.1 145.06C248.828 145.06 248.608 144.976 248.44 144.808C248.272 144.64 248.188 144.44 248.188 144.208C248.188 143.96 248.272 143.752 248.44 143.584C248.608 143.416 248.828 143.332 249.1 143.332C249.364 143.332 249.58 143.416 249.748 143.584C249.916 143.752 250 143.96 250 144.208C250 144.44 249.916 144.64 249.748 144.808C249.58 144.976 249.364 145.06 249.1 145.06ZM252.248 145V138.244L250.868 138.556V137.464L252.836 136.6H253.736V145H252.248ZM251 143.848H254.996V145H251V143.848ZM259.559 145.144C258.799 145.144 258.147 144.964 257.603 144.604C257.059 144.236 256.639 143.728 256.343 143.08C256.055 142.424 255.911 141.664 255.911 140.8C255.911 139.936 256.055 139.18 256.343 138.532C256.639 137.876 257.059 137.368 257.603 137.008C258.147 136.64 258.799 136.456 259.559 136.456C260.311 136.456 260.955 136.64 261.491 137.008C262.035 137.368 262.451 137.876 262.739 138.532C263.035 139.18 263.183 139.936 263.183 140.8C263.183 141.664 263.035 142.424 262.739 143.08C262.451 143.728 262.035 144.236 261.491 144.604C260.955 144.964 260.311 145.144 259.559 145.144ZM259.547 143.848C259.971 143.848 260.347 143.728 260.675 143.488C261.003 143.24 261.255 142.888 261.431 142.432C261.615 141.976 261.707 141.432 261.707 140.8C261.707 140.168 261.615 139.624 261.431 139.168C261.255 138.712 261.003 138.364 260.675 138.124C260.347 137.876 259.971 137.752 259.547 137.752C259.123 137.752 258.747 137.876 258.419 138.124C258.091 138.364 257.835 138.712 257.651 139.168C257.475 139.624 257.387 140.168 257.387 140.8C257.387 141.432 257.475 141.976 257.651 142.432C257.835 142.888 258.091 143.24 258.419 143.488C258.747 143.728 259.123 143.848 259.547 143.848Z" fill="#2D2D2D"/>
<path d="M186.876 164V155.6H189.72C190.384 155.6 190.928 155.712 191.352 155.936C191.776 156.16 192.088 156.46 192.288 156.836C192.496 157.204 192.6 157.624 192.6 158.096C192.6 158.544 192.496 158.96 192.288 159.344C192.088 159.72 191.772 160.024 191.34 160.256C190.908 160.48 190.356 160.592 189.684 160.592H188.076V164H186.876ZM191.292 164L189.48 160.268H190.8L192.684 164H191.292ZM188.076 159.68H189.636C190.228 159.68 190.664 159.536 190.944 159.248C191.224 158.952 191.364 158.576 191.364 158.12C191.364 157.656 191.228 157.288 190.956 157.016C190.684 156.744 190.244 156.608 189.636 156.608H188.076V159.68ZM196.466 164.144C195.89 164.144 195.378 164.012 194.93 163.748C194.482 163.484 194.13 163.116 193.874 162.644C193.626 162.172 193.502 161.624 193.502 161C193.502 160.36 193.626 159.804 193.874 159.332C194.13 158.852 194.482 158.48 194.93 158.216C195.378 157.944 195.898 157.808 196.49 157.808C197.082 157.808 197.59 157.94 198.014 158.204C198.438 158.468 198.766 158.82 198.998 159.26C199.23 159.692 199.346 160.172 199.346 160.7C199.346 160.78 199.342 160.868 199.334 160.964C199.334 161.052 199.33 161.152 199.322 161.264H194.378V160.412H198.146C198.122 159.908 197.954 159.516 197.642 159.236C197.33 158.948 196.942 158.804 196.478 158.804C196.15 158.804 195.85 158.88 195.578 159.032C195.306 159.176 195.086 159.392 194.918 159.68C194.758 159.96 194.678 160.316 194.678 160.748V161.084C194.678 161.532 194.758 161.912 194.918 162.224C195.086 162.528 195.306 162.76 195.578 162.92C195.85 163.072 196.146 163.148 196.466 163.148C196.85 163.148 197.166 163.064 197.414 162.896C197.662 162.728 197.846 162.5 197.966 162.212H199.166C199.062 162.58 198.886 162.912 198.638 163.208C198.39 163.496 198.082 163.724 197.714 163.892C197.354 164.06 196.938 164.144 196.466 164.144ZM203.011 164C202.627 164 202.295 163.94 202.015 163.82C201.735 163.7 201.519 163.5 201.367 163.22C201.215 162.94 201.139 162.56 201.139 162.08V158.972H200.095V157.952H201.139L201.283 156.44H202.339V157.952H204.055V158.972H202.339V162.092C202.339 162.436 202.411 162.672 202.555 162.8C202.699 162.92 202.947 162.98 203.299 162.98H203.995V164H203.011ZM207.599 164.144C207.127 164.144 206.715 164.048 206.363 163.856C206.019 163.664 205.751 163.376 205.559 162.992C205.375 162.608 205.283 162.124 205.283 161.54V157.952H206.483V161.408C206.483 161.976 206.607 162.404 206.855 162.692C207.103 162.98 207.459 163.124 207.923 163.124C208.235 163.124 208.515 163.048 208.763 162.896C209.019 162.744 209.219 162.524 209.363 162.236C209.507 161.948 209.579 161.596 209.579 161.18V157.952H210.779V164H209.711L209.627 162.968C209.443 163.336 209.175 163.624 208.823 163.832C208.471 164.04 208.063 164.144 207.599 164.144ZM212.421 164V157.952H213.501L213.609 159.092C213.745 158.82 213.921 158.592 214.137 158.408C214.353 158.216 214.605 158.068 214.893 157.964C215.189 157.86 215.525 157.808 215.901 157.808V159.08H215.469C215.221 159.08 214.985 159.112 214.761 159.176C214.537 159.232 214.337 159.332 214.161 159.476C213.993 159.62 213.861 159.816 213.765 160.064C213.669 160.312 213.621 160.62 213.621 160.988V164H212.421ZM217.004 164V157.952H218.084L218.156 158.984C218.348 158.624 218.62 158.34 218.972 158.132C219.324 157.916 219.728 157.808 220.184 157.808C220.664 157.808 221.076 157.904 221.42 158.096C221.764 158.288 222.032 158.58 222.224 158.972C222.416 159.356 222.512 159.84 222.512 160.424V164H221.312V160.544C221.312 159.984 221.188 159.56 220.94 159.272C220.692 158.984 220.332 158.84 219.86 158.84C219.548 158.84 219.268 158.916 219.02 159.068C218.772 159.212 218.572 159.428 218.42 159.716C218.276 160.004 218.204 160.356 218.204 160.772V164H217.004ZM226.386 164.144C225.874 164.144 225.426 164.06 225.042 163.892C224.658 163.724 224.354 163.488 224.13 163.184C223.906 162.88 223.77 162.524 223.722 162.116H224.946C224.986 162.308 225.062 162.484 225.174 162.644C225.294 162.804 225.454 162.932 225.654 163.028C225.862 163.124 226.106 163.172 226.386 163.172C226.65 163.172 226.866 163.136 227.034 163.064C227.21 162.984 227.338 162.88 227.418 162.752C227.498 162.616 227.538 162.472 227.538 162.32C227.538 162.096 227.482 161.928 227.37 161.816C227.266 161.696 227.106 161.604 226.89 161.54C226.682 161.468 226.43 161.404 226.134 161.348C225.854 161.3 225.582 161.236 225.318 161.156C225.062 161.068 224.83 160.96 224.622 160.832C224.422 160.704 224.262 160.544 224.142 160.352C224.022 160.152 223.962 159.908 223.962 159.62C223.962 159.276 224.054 158.968 224.238 158.696C224.422 158.416 224.682 158.2 225.018 158.048C225.362 157.888 225.766 157.808 226.23 157.808C226.902 157.808 227.442 157.968 227.85 158.288C228.258 158.608 228.498 159.06 228.57 159.644H227.406C227.374 159.372 227.254 159.164 227.046 159.02C226.838 158.868 226.562 158.792 226.218 158.792C225.874 158.792 225.61 158.86 225.426 158.996C225.242 159.132 225.15 159.312 225.15 159.536C225.15 159.68 225.202 159.808 225.306 159.92C225.41 160.032 225.562 160.128 225.762 160.208C225.97 160.28 226.222 160.348 226.518 160.412C226.942 160.492 227.322 160.592 227.658 160.712C227.994 160.832 228.262 161.008 228.462 161.24C228.662 161.472 228.762 161.804 228.762 162.236C228.77 162.612 228.674 162.944 228.474 163.232C228.282 163.52 228.006 163.744 227.646 163.904C227.294 164.064 226.874 164.144 226.386 164.144Z" fill="#727272"/>
<mask id="mask0_28_5147" style="mask-type:alpha" maskUnits="userSpaceOnUse" x="234" y="153" width="14" height="14">
<rect x="234" y="153" width="14" height="14" fill="#D9D9D9"/>
</mask>
<g mask="url(#mask0_28_5147)">
<path d="M240.417 159.882V161.748C240.417 161.913 240.473 162.052 240.584 162.164C240.696 162.276 240.835 162.332 241 162.332C241.165 162.332 241.304 162.276 241.416 162.164C241.528 162.052 241.583 161.913 241.583 161.748V159.882L242.108 160.407C242.215 160.513 242.351 160.567 242.517 160.567C242.682 160.567 242.818 160.513 242.925 160.407C243.032 160.3 243.085 160.163 243.085 159.998C243.085 159.833 243.032 159.697 242.925 159.59L241.408 158.073C241.292 157.957 241.156 157.898 241 157.898C240.845 157.898 240.708 157.957 240.592 158.073L239.075 159.59C238.968 159.697 238.915 159.833 238.915 159.998C238.915 160.163 238.968 160.3 239.075 160.407C239.182 160.513 239.318 160.567 239.483 160.567C239.649 160.567 239.785 160.513 239.892 160.407L240.417 159.882ZM241 165.832C240.193 165.832 239.435 165.678 238.725 165.372C238.015 165.066 237.398 164.65 236.873 164.125C236.348 163.6 235.932 162.983 235.626 162.273C235.32 161.563 235.167 160.805 235.167 159.998C235.167 159.191 235.32 158.433 235.626 157.723C235.932 157.013 236.348 156.396 236.873 155.871C237.398 155.346 238.015 154.93 238.725 154.624C239.435 154.318 240.193 154.165 241 154.165C241.807 154.165 242.565 154.318 243.275 154.624C243.985 154.93 244.602 155.346 245.127 155.871C245.652 156.396 246.068 157.013 246.374 157.723C246.68 158.433 246.833 159.191 246.833 159.998C246.833 160.805 246.68 161.563 246.374 162.273C246.068 162.983 245.652 163.6 245.127 164.125C244.602 164.65 243.985 165.066 243.275 165.372C242.565 165.678 241.807 165.832 241 165.832Z" fill="#74A766"/>
</g>
<path d="M250.648 164V162.956C251.184 162.532 251.696 162.108 252.184 161.684C252.672 161.26 253.112 160.84 253.504 160.424C253.896 160.008 254.204 159.6 254.428 159.2C254.652 158.8 254.764 158.416 254.764 158.048C254.764 157.808 254.72 157.584 254.632 157.376C254.544 157.168 254.404 157 254.212 156.872C254.028 156.744 253.78 156.68 253.468 156.68C253.164 156.68 252.904 156.748 252.688 156.884C252.48 157.02 252.324 157.204 252.22 157.436C252.116 157.66 252.064 157.916 252.064 158.204H250.672C250.688 157.596 250.82 157.088 251.068 156.68C251.316 156.272 251.652 155.968 252.076 155.768C252.5 155.56 252.976 155.456 253.504 155.456C254.072 155.456 254.556 155.56 254.956 155.768C255.356 155.976 255.664 156.268 255.88 156.644C256.096 157.02 256.204 157.464 256.204 157.976C256.204 158.352 256.132 158.724 255.988 159.092C255.852 159.452 255.66 159.804 255.412 160.148C255.164 160.484 254.884 160.812 254.572 161.132C254.268 161.444 253.952 161.744 253.624 162.032C253.296 162.312 252.98 162.572 252.676 162.812H256.432V164H250.648ZM258.354 164.06C258.082 164.06 257.862 163.976 257.694 163.808C257.526 163.64 257.442 163.44 257.442 163.208C257.442 162.96 257.526 162.752 257.694 162.584C257.862 162.416 258.082 162.332 258.354 162.332C258.618 162.332 258.834 162.416 259.002 162.584C259.17 162.752 259.254 162.96 259.254 163.208C259.254 163.44 259.17 163.64 259.002 163.808C258.834 163.976 258.618 164.06 258.354 164.06ZM260.826 164L263.958 156.836H259.734V155.6H265.434V156.632L262.326 164H260.826ZM269.856 164V162.404H265.692V161.252L269.652 155.6H271.284V161.144H272.424V162.404H271.284V164H269.856ZM267.24 161.144H269.94V157.184L267.24 161.144ZM274.74 164L279.504 155.6H280.92L276.156 164H274.74ZM280.536 164.144C280.16 164.144 279.816 164.06 279.504 163.892C279.2 163.716 278.956 163.472 278.772 163.16C278.588 162.84 278.496 162.464 278.496 162.032C278.496 161.592 278.588 161.216 278.772 160.904C278.956 160.592 279.2 160.352 279.504 160.184C279.816 160.008 280.16 159.92 280.536 159.92C280.928 159.92 281.272 160.008 281.568 160.184C281.872 160.352 282.112 160.592 282.288 160.904C282.472 161.216 282.564 161.592 282.564 162.032C282.564 162.464 282.472 162.84 282.288 163.16C282.112 163.472 281.872 163.716 281.568 163.892C281.264 164.06 280.92 164.144 280.536 164.144ZM280.524 163.136C280.692 163.136 280.844 163.096 280.98 163.016C281.116 162.928 281.224 162.804 281.304 162.644C281.384 162.476 281.424 162.272 281.424 162.032C281.424 161.784 281.384 161.58 281.304 161.42C281.224 161.26 281.116 161.14 280.98 161.06C280.852 160.972 280.704 160.928 280.536 160.928C280.376 160.928 280.228 160.972 280.092 161.06C279.956 161.14 279.848 161.26 279.768 161.42C279.688 161.58 279.648 161.784 279.648 162.032C279.648 162.272 279.688 162.476 279.768 162.644C279.848 162.804 279.952 162.928 280.08 163.016C280.216 163.096 280.364 163.136 280.524 163.136ZM275.196 159.68C274.812 159.68 274.464 159.596 274.152 159.428C273.848 159.26 273.604 159.016 273.42 158.696C273.244 158.376 273.156 158 273.156 157.568C273.156 157.136 273.244 156.764 273.42 156.452C273.604 156.132 273.852 155.888 274.164 155.72C274.476 155.552 274.82 155.468 275.196 155.468C275.58 155.468 275.924 155.552 276.228 155.72C276.532 155.888 276.772 156.132 276.948 156.452C277.132 156.764 277.224 157.136 277.224 157.568C277.224 158 277.132 158.376 276.948 158.696C276.772 159.016 276.532 159.26 276.228 159.428C275.924 159.596 275.58 159.68 275.196 159.68ZM275.184 158.672C275.352 158.672 275.504 158.632 275.64 158.552C275.776 158.464 275.88 158.34 275.952 158.18C276.032 158.012 276.072 157.808 276.072 157.568C276.072 157.328 276.032 157.124 275.952 156.956C275.88 156.788 275.776 156.664 275.64 156.584C275.504 156.496 275.356 156.452 275.196 156.452C275.036 156.452 274.884 156.496 274.74 156.584C274.604 156.664 274.496 156.788 274.416 156.956C274.336 157.124 274.296 157.328 274.296 157.568C274.296 157.808 274.336 158.012 274.416 158.18C274.496 158.34 274.604 158.464 274.74 158.552C274.876 158.632 275.024 158.672 275.184 158.672Z" fill="#74A766"/>
</svg>
